# Blender 5.0.0
# www.blender.org
mtllib d10.mtl
o 10Silver
v 0.748227 0.084963 0.219244
v 0.734197 0.084963 0.262425
v 0.748180 0.057228 0.243098
v 0.745044 0.088972 0.242079
v 0.752007 0.076035 0.244342
v 0.745010 0.069360 0.258947
v 0.754931 0.069360 0.228413
v 0.476460 -0.084963 0.617169
v 0.462400 -0.057228 0.636440
v 0.439728 -0.084963 0.643856
v 0.476494 -0.069360 0.628528
v 0.464766 -0.076035 0.639696
v 0.450521 -0.069360 0.647399
v 0.460463 -0.088971 0.633772
v -0.000000 0.057228 0.786683
v 0.022702 0.084963 0.779356
v -0.022702 0.084963 0.779356
v 0.016053 0.069360 0.788566
v -0.000000 0.076035 0.790707
v -0.000000 0.088972 0.783386
v -0.016053 0.069360 0.788566
v -0.439728 -0.084963 0.643856
v -0.462400 -0.057228 0.636440
v -0.476460 -0.084963 0.617169
v -0.450521 -0.069360 0.647399
v -0.464766 -0.076035 0.639696
v -0.476494 -0.069360 0.628528
v -0.460463 -0.088971 0.633772
v -0.748180 0.057228 0.243098
v -0.734197 0.084963 0.262425
v -0.748227 0.084963 0.219244
v -0.745010 0.069360 0.258947
v -0.752007 0.076035 0.244342
v -0.745044 0.088972 0.242080
v -0.754931 0.069360 0.228413
v 0.036710 0.690909 -0.011928
v -0.000000 0.690909 -0.038599
v -0.036710 0.690909 -0.011928
v -0.022688 0.690909 0.031227
v 0.022688 0.690909 0.031227
v 0.019945 0.694248 -0.027452
v -0.000000 0.706854 -0.000000
v -0.019945 0.694248 -0.027452
v -0.032271 0.694248 0.010486
v -0.000000 0.694248 0.033932
v 0.032271 0.694248 0.010486
v 0.748227 -0.084963 -0.219244
v 0.734197 -0.084963 -0.262425
v 0.748180 -0.057228 -0.243098
v 0.745044 -0.088971 -0.242079
v 0.752007 -0.076035 -0.244342
v 0.745010 -0.069360 -0.258947
v 0.754931 -0.069360 -0.228413
v 0.476460 0.084963 -0.617169
v 0.462400 0.057228 -0.636440
v 0.439728 0.084963 -0.643856
v 0.476494 0.069360 -0.628528
v 0.464766 0.076034 -0.639696
v 0.450521 0.069360 -0.647399
v 0.460463 0.088971 -0.633772
v -0.000000 -0.057228 -0.786682
v 0.022702 -0.084963 -0.779356
v -0.022702 -0.084963 -0.779356
v 0.016053 -0.069360 -0.788566
v -0.000000 -0.076035 -0.790707
v -0.000000 -0.088972 -0.783386
v -0.016053 -0.069360 -0.788566
v -0.439728 0.084963 -0.643856
v -0.462400 0.057228 -0.636439
v -0.476460 0.084963 -0.617169
v -0.450521 0.069360 -0.647399
v -0.464766 0.076034 -0.639695
v -0.476494 0.069360 -0.628528
v -0.460463 0.088971 -0.633772
v -0.748180 -0.057228 -0.243098
v -0.734197 -0.084963 -0.262425
v -0.748227 -0.084963 -0.219244
v -0.745010 -0.069360 -0.258947
v -0.752007 -0.076035 -0.244342
v -0.745044 -0.088971 -0.242079
v -0.754931 -0.069360 -0.228413
v 0.036710 -0.690909 0.011928
v -0.000000 -0.690909 0.038599
v -0.036710 -0.690909 0.011928
v -0.022688 -0.690909 -0.031227
v 0.022688 -0.690909 -0.031227
v 0.019945 -0.694248 0.027452
v -0.000000 -0.706855 0.000000
v -0.019945 -0.694248 0.027452
v -0.032272 -0.694248 -0.010485
v -0.000000 -0.694248 -0.033932
v 0.032272 -0.694248 -0.010485
vn -0.0000 0.8282 -0.5605
vn -0.0000 0.4638 -0.8859
vn -0.1709 0.5713 -0.8027
vn -0.0000 -0.8281 0.5605
vn -0.0000 -0.4638 0.8859
vn -0.1709 -0.5713 0.8027
vn 0.5331 -0.8281 0.1732
vn 0.8426 -0.4638 0.2738
vn 0.7106 -0.5713 0.4106
vn 0.3295 -0.8281 -0.4535
vn 0.5207 -0.4638 -0.7167
vn 0.6101 -0.5713 -0.5490
vn -0.5331 0.8282 -0.1732
vn -0.8426 0.4638 -0.2738
vn -0.8163 0.5713 -0.0855
vn -0.5331 -0.8281 0.1732
vn -0.8426 -0.4638 0.2738
vn -0.8163 -0.5713 0.0855
vn -0.3295 -0.8281 -0.4535
vn -0.5207 -0.4638 -0.7167
vn -0.3336 -0.5713 -0.7499
vn 0.3295 0.8282 0.4535
vn 0.5207 0.4638 0.7167
vn 0.6101 0.5713 0.5490
vn -0.3295 0.8282 0.4535
vn -0.5207 0.4638 0.7167
vn -0.3336 0.5713 0.7499
vn 0.7346 0.6351 0.2387
vn 0.9969 0.0291 0.0728
vn 0.8163 0.5713 -0.0855
vn 0.8493 0.0291 0.5271
vn 0.9261 0.2277 0.3009
vn 0.7637 -0.0291 0.6449
vn 0.4540 -0.6351 0.6249
vn 0.5723 -0.2277 0.7878
vn 0.3773 -0.0291 0.9256
vn 0.1709 -0.5713 0.8027
vn -0.0000 0.2277 0.9737
vn -0.2388 0.0291 0.9706
vn -0.0000 0.6351 0.7724
vn 0.2388 0.0291 0.9706
vn 0.3336 0.5713 0.7499
vn -0.3773 -0.0291 0.9256
vn -0.4540 -0.6351 0.6249
vn -0.5723 -0.2277 0.7878
vn -0.7637 -0.0291 0.6449
vn -0.7106 -0.5713 0.4106
vn -0.9261 0.2277 0.3009
vn -0.9969 0.0291 0.0728
vn -0.7346 0.6351 0.2387
vn -0.8493 0.0291 0.5271
vn -0.6101 0.5713 0.5490
vn 0.5331 0.8282 -0.1732
vn -0.0000 1.0000 -0.0000
vn 0.4736 0.8672 0.1539
vn 0.2927 0.8672 -0.4029
vn -0.2927 0.8672 -0.4029
vn -0.4736 0.8672 0.1539
vn -0.0000 0.8672 0.4980
vn 0.7346 -0.6351 -0.2387
vn 0.9969 -0.0291 -0.0728
vn 0.8163 -0.5713 0.0855
vn 0.8493 -0.0291 -0.5271
vn 0.8426 0.4638 -0.2738
vn 0.9261 -0.2277 -0.3009
vn 0.7637 0.0291 -0.6449
vn 0.4540 0.6351 -0.6249
vn 0.7106 0.5713 -0.4106
vn 0.5724 0.2277 -0.7878
vn 0.3773 0.0291 -0.9256
vn 0.1709 0.5713 -0.8027
vn -0.0000 -0.2277 -0.9737
vn -0.2388 -0.0291 -0.9706
vn -0.0000 -0.6351 -0.7724
vn 0.2388 -0.0291 -0.9706
vn 0.3336 -0.5713 -0.7499
vn -0.3773 0.0291 -0.9256
vn -0.4540 0.6351 -0.6249
vn -0.5724 0.2277 -0.7878
vn -0.7637 0.0291 -0.6449
vn -0.7106 0.5713 -0.4106
vn -0.9261 -0.2277 -0.3009
vn -0.9969 -0.0291 -0.0728
vn -0.7346 -0.6351 -0.2387
vn -0.8493 -0.0291 -0.5271
vn -0.6101 -0.5713 -0.5490
vn -0.0000 -1.0000 -0.0000
vn 0.4736 -0.8672 -0.1539
vn 0.2927 -0.8672 0.4029
vn -0.2927 -0.8672 0.4029
vn -0.4736 -0.8672 -0.1539
vn -0.0000 -0.8672 -0.4980
vt 0.469582 0.266303
vt 0.626034 0.500084
vt 0.391854 0.489103
vt 0.519678 0.751368
vt 0.015379 0.851466
vt 0.018460 0.751853
vt 0.537458 0.758358
vt 0.368290 0.990883
vt 0.201650 0.923820
vt 0.561686 0.757011
vt 0.848611 0.964936
vt 0.618200 0.976966
vt 0.446178 0.242989
vt 0.159253 0.035064
vt 0.389665 0.023034
vt 0.519846 0.740816
vt 0.017555 0.641560
vt 0.189773 0.575116
vt 0.538283 0.733697
vt 0.381830 0.499916
vt 0.616010 0.510897
vt 0.488186 0.248632
vt 0.992486 0.148534
vt 0.989405 0.248147
vt 0.470407 0.241643
vt 0.639574 0.009117
vt 0.806214 0.076180
vt 0.988859 0.253315
vt 1.002155 0.257819
vt 0.989286 0.258500
vt 1.002245 0.248794
vt 0.988859 0.253315
vt 0.366310 0.996425
vt 0.356551 0.993522
vt 0.191918 0.927625
vt 0.193253 0.920217
vt 1.003089 0.145464
vt 1.004621 0.150609
vt 0.193253 0.920217
vt 0.176747 0.921630
vt 0.184236 0.916948
vt 0.004775 0.854536
vt 0.003244 0.849391
vt 0.814611 0.079783
vt 0.831117 0.078370
vt 0.823628 0.083052
vt 0.815947 0.072375
vt 0.005620 0.751206
vt 0.019005 0.746685
vt 0.641555 0.003575
vt 0.651314 0.006478
vt 0.019005 0.746685
vt 0.005710 0.742181
vt 0.018579 0.741500
vt 0.005282 0.640138
vt 0.013049 0.636148
vt 0.401694 0.022568
vt 0.410424 0.016184
vt 0.413372 0.021746
vt 0.389778 0.017297
vt 0.401694 0.022568
vt 0.488018 0.259184
vt 0.464588 0.253932
vt 0.486842 0.253896
vt 0.478202 0.262293
vt 0.440051 0.247702
vt 0.458648 0.242816
vt 0.478475 0.245563
vt 0.606171 0.977432
vt 0.597441 0.983816
vt 0.594493 0.978254
vt 0.618086 0.982703
vt 0.606171 0.977432
vt 0.990309 0.358440
vt 1.002583 0.359862
vt 0.994815 0.363852
vt 0.825434 0.429574
vt 0.808916 0.428201
vt 0.818091 0.424884
vt 0.856703 0.969236
vt 0.844941 0.970616
vt 0.808916 0.428201
vt 0.809780 0.435663
vt 0.800100 0.431870
vt 0.631811 0.505077
vt 0.619508 0.505257
vt 0.993473 0.875672
vt 0.998452 0.882765
vt 0.986671 0.880153
vt 0.619507 0.505257
vt 0.628056 0.511641
vt 0.388357 0.494743
vt 0.379808 0.488359
vt 0.376053 0.494923
vt 0.388357 0.494743
vt 0.014392 0.124328
vt 0.009412 0.117235
vt 0.021193 0.119847
vt 0.151162 0.030764
vt 0.162923 0.029384
vt 0.198948 0.571799
vt 0.198084 0.564337
vt 0.207764 0.568130
vt 0.182430 0.570426
vt 0.198948 0.571799
vt 0.543276 0.746068
vt 0.549217 0.757184
vt 0.529389 0.754437
vt 0.521022 0.746104
vt 0.529663 0.737707
vt 0.567814 0.752298
vt 0.010751 0.856868
vt 0.997113 0.143132
vt 0.005297 0.643683
vt 0.633523 0.004013
vt 0.458648 0.242816
vt 0.549217 0.757184
vt 0.861628 0.966232
vt 0.637995 0.502665
vt 0.550267 0.734818
vt 0.388357 0.494743
vt 0.369869 0.497335
vt 0.146236 0.033768
vt 0.478202 0.262293
vt 0.374341 0.995987
vt 1.002568 0.356317
vt 0.457597 0.265182
vt 0.996067 0.253306
vt 1.002159 0.252329
vt 0.185991 0.925253
vt 0.188427 0.922597
vt 0.819437 0.077403
vt 0.821873 0.074747
vt 0.005705 0.747671
vt 0.011797 0.746694
vt 0.400876 0.019405
vt 0.397945 0.016862
vt 0.478202 0.262293
vt 0.458648 0.242816
vt 0.486842 0.253896
vt 0.606989 0.980595
vt 0.609919 0.983138
vt 0.819337 0.431940
vt 0.813665 0.430584
vt 0.999584 0.877444
vt 0.627829 0.505635
vt 0.380036 0.494365
vt 0.008280 0.122556
vt 0.194200 0.569416
vt 0.188528 0.568060
vt 0.521022 0.746104
vt 0.401694 0.022568
vt 0.019005 0.746685
s 1
usemtl 10Silver
f 37/1/1 61/2/2 68/3/3
f 83/4/4 15/5/5 22/6/6
f 82/7/7 3/8/8 8/9/9
f 86/10/10 55/11/11 48/12/12
f 38/13/13 75/14/14 31/15/15
f 84/16/16 29/17/17 77/18/18
f 85/19/19 69/20/20 63/21/21
f 40/22/22 9/23/23 2/24/24
f 39/25/25 23/26/26 17/27/27
f 4/28/28 7/29/29 1/30/30
f 6/31/31 4/32/28 2/24/24
f 3/8/8 5/33/32 6/34/31
f 11/35/33 14/36/34 8/9/9
f 9/23/23 12/37/35 11/38/33
f 14/39/34 13/40/36 10/41/37
f 15/5/5 19/42/38 21/43/39
f 20/44/40 18/45/41 16/46/42
f 21/47/39 20/44/40 17/27/27
f 25/48/43 28/49/44 22/6/6
f 23/26/26 26/50/45 25/51/43
f 28/52/44 27/53/46 24/54/47
f 29/17/17 33/55/48 35/56/49
f 34/57/50 32/58/51 30/59/52
f 35/60/49 34/61/50 31/15/15
f 36/62/53 42/63/54 46/64/55
f 37/1/1 42/63/54 41/65/56
f 38/13/13 42/63/54 43/66/57
f 39/25/25 42/63/54 44/67/58
f 40/22/22 42/63/54 45/68/59
f 50/69/60 53/70/61 47/71/62
f 52/72/63 50/73/60 48/12/12
f 49/74/64 51/75/65 52/76/63
f 57/77/66 60/78/67 54/79/68
f 55/11/11 58/80/69 57/81/66
f 60/82/67 59/83/70 56/84/71
f 61/2/2 65/85/72 67/86/73
f 66/87/74 64/88/75 62/89/76
f 67/90/73 66/91/74 63/21/21
f 71/92/77 74/93/78 68/3/3
f 69/20/20 72/94/79 71/95/77
f 74/96/78 73/97/80 70/98/81
f 75/14/14 79/99/82 81/100/83
f 80/101/84 78/102/85 76/103/86
f 81/104/83 80/105/84 77/18/18
f 82/7/7 88/106/87 92/107/88
f 83/4/4 88/106/87 87/108/89
f 84/16/16 88/106/87 89/109/90
f 85/19/19 88/106/87 90/110/91
f 86/10/10 88/106/87 91/111/92
f 2/24/24 46/64/55 40/22/22
f 46/64/55 1/30/30 36/62/53
f 8/9/9 6/34/31 11/35/33
f 11/38/33 2/24/24 9/23/23
f 10/41/37 18/112/41 15/5/5
f 13/113/36 16/46/42 18/45/41
f 17/27/27 45/68/59 39/25/25
f 45/68/59 16/46/42 40/22/22
f 22/6/6 21/43/39 25/48/43
f 25/51/43 17/27/27 23/26/26
f 24/54/47 32/114/51 29/17/17
f 27/115/46 30/59/52 32/58/51
f 31/15/15 44/116/58 38/13/13
f 44/116/58 30/59/52 39/25/25
f 48/12/12 92/117/88 86/10/10
f 92/117/88 47/71/62 82/7/7
f 48/12/12 57/81/66 52/72/63
f 52/76/63 54/79/68 49/74/64
f 62/89/76 59/118/70 55/11/11
f 64/119/75 56/84/71 59/83/70
f 63/21/21 91/120/92 85/19/19
f 91/111/92 62/89/76 86/10/10
f 63/21/21 71/121/77 67/86/73
f 67/86/73 68/3/3 61/2/2
f 76/103/86 73/122/80 69/20/20
f 78/123/85 70/98/81 73/97/80
f 77/18/18 90/110/91 84/16/16
f 90/110/91 76/103/86 85/19/19
f 54/79/68 41/124/56 36/62/53
f 41/124/56 56/84/71 37/1/1
f 47/71/62 7/125/29 3/8/8
f 53/126/61 1/30/30 7/29/29
f 77/18/18 35/56/49 81/104/83
f 81/100/83 31/15/15 75/14/14
f 68/3/3 43/127/57 37/1/1
f 43/66/57 70/98/81 38/13/13
f 8/9/9 87/108/89 82/7/7
f 87/108/89 10/41/37 83/4/4
f 22/6/6 89/109/90 83/4/4
f 89/109/90 24/54/47 84/16/16
f 36/62/53 49/74/64 54/79/68
f 37/1/1 56/84/71 61/2/2
f 83/4/4 10/41/37 15/5/5
f 82/7/7 47/71/62 3/8/8
f 86/10/10 62/89/76 55/11/11
f 38/13/13 70/98/81 75/14/14
f 84/16/16 24/54/47 29/17/17
f 85/19/19 76/103/86 69/20/20
f 40/22/22 16/46/42 9/23/23
f 39/25/25 30/59/52 23/26/26
f 4/28/28 5/128/32 7/29/29
f 6/31/31 5/129/32 4/32/28
f 3/8/8 7/125/29 5/33/32
f 11/35/33 12/130/35 14/36/34
f 9/23/23 13/113/36 12/37/35
f 14/39/34 12/131/35 13/40/36
f 15/5/5 18/112/41 19/42/38
f 20/44/40 19/132/38 18/45/41
f 21/47/39 19/133/38 20/44/40
f 25/48/43 26/134/45 28/49/44
f 23/26/26 27/115/46 26/50/45
f 28/52/44 26/135/45 27/53/46
f 29/17/17 32/114/51 33/55/48
f 34/57/50 33/136/48 32/58/51
f 35/60/49 33/137/48 34/61/50
f 36/62/53 41/138/56 42/63/54
f 37/1/1 43/127/57 42/63/54
f 38/13/13 44/139/58 42/63/54
f 39/25/25 45/68/59 42/63/54
f 40/22/22 46/140/55 42/63/54
f 50/69/60 51/141/65 53/70/61
f 52/72/63 51/142/65 50/73/60
f 49/74/64 53/126/61 51/75/65
f 57/77/66 58/143/69 60/78/67
f 55/11/11 59/118/70 58/80/69
f 60/82/67 58/144/69 59/83/70
f 61/2/2 64/119/75 65/85/72
f 66/87/74 65/145/72 64/88/75
f 67/90/73 65/146/72 66/91/74
f 71/92/77 72/147/79 74/93/78
f 69/20/20 73/122/80 72/94/79
f 74/96/78 72/148/79 73/97/80
f 75/14/14 78/123/85 79/99/82
f 80/101/84 79/149/82 78/102/85
f 81/104/83 79/150/82 80/105/84
f 82/7/7 87/108/89 88/106/87
f 83/4/4 89/151/90 88/106/87
f 84/16/16 90/110/91 88/106/87
f 85/19/19 91/120/92 88/106/87
f 86/10/10 92/117/88 88/106/87
f 2/24/24 4/32/28 46/64/55
f 46/64/55 4/32/28 1/30/30
f 8/9/9 3/8/8 6/34/31
f 11/38/33 6/31/31 2/24/24
f 10/41/37 13/40/36 18/112/41
f 13/113/36 9/23/23 16/46/42
f 17/27/27 20/44/40 45/68/59
f 45/68/59 20/44/40 16/46/42
f 22/6/6 15/5/5 21/43/39
f 25/51/43 21/47/39 17/27/27
f 24/54/47 27/53/46 32/114/51
f 27/115/46 23/26/26 30/59/52
f 31/15/15 34/152/50 44/116/58
f 44/116/58 34/152/50 30/59/52
f 48/12/12 50/73/60 92/117/88
f 92/117/88 50/73/60 47/71/62
f 48/12/12 55/11/11 57/81/66
f 52/76/63 57/77/66 54/79/68
f 62/89/76 64/88/75 59/118/70
f 64/119/75 61/2/2 56/84/71
f 63/21/21 66/91/74 91/120/92
f 91/111/92 66/87/74 62/89/76
f 63/21/21 69/20/20 71/121/77
f 67/86/73 71/121/77 68/3/3
f 76/103/86 78/102/85 73/122/80
f 78/123/85 75/14/14 70/98/81
f 77/18/18 80/105/84 90/110/91
f 90/110/91 80/105/84 76/103/86
f 54/79/68 60/82/67 41/124/56
f 41/124/56 60/82/67 56/84/71
f 47/71/62 53/70/61 7/125/29
f 53/126/61 49/74/64 1/30/30
f 77/18/18 29/17/17 35/56/49
f 81/100/83 35/60/49 31/15/15
f 68/3/3 74/93/78 43/127/57
f 43/66/57 74/96/78 70/98/81
f 8/9/9 14/36/34 87/108/89
f 87/108/89 14/36/34 10/41/37
f 22/6/6 28/153/44 89/109/90
f 89/109/90 28/153/44 24/54/47
f 36/62/53 1/30/30 49/74/64
